<?xml version="1.0" encoding="utf-8"?>
<!-- Generator: Adobe Illustrator 25.2.3, SVG Export Plug-In . SVG Version: 6.00 Build 0)  -->
<svg version="1.1" id="Layer_1" xmlns="http://www.w3.org/2000/svg" xmlns:xlink="http://www.w3.org/1999/xlink" x="0px" y="0px"
	 viewBox="0 0 200 200" style="enable-background:new 0 0 200 200;" xml:space="preserve">
<style type="text/css">
	.st0{fill:#011358;}
</style>
<g>
	<g>
		<path class="st0" d="M131.25,191.94H16.42c-1.95,0-3.54-1.59-3.54-3.54V75.84c0-1.93,1.57-3.52,3.5-3.54l115.71-0.97l48.77-59.18
			c0.96-1.16,2.55-1.59,3.96-1.07c1.41,0.52,2.34,1.89,2.31,3.39L184.7,127.8c-0.02,0.79-0.31,1.57-0.81,2.18l-49.91,60.67
			C133.31,191.47,132.31,191.94,131.25,191.94z M18.79,186.03h111.34l48.68-59.18l2.26-105.65l-45.12,54.75
			c-0.66,0.81-1.65,1.28-2.7,1.29L18.79,78.2V186.03z M179.33,126.22c0,0-0.01,0.01-0.01,0.01L179.33,126.22z M131.39,72.19
			C131.38,72.19,131.38,72.19,131.39,72.19L131.39,72.19z"/>
	</g>
	<g>
		<polygon class="st0" points="17.74,93.14 43.79,188.98 64.24,188.98 77.97,130.17 92.46,187.13 113.44,187.38 131.53,121.32 
			133.89,75.79 121.46,75.79 103.88,141.99 88.58,75.79 69.66,75.79 54.15,141.56 39.91,75.79 16.84,75.2 		"/>
	</g>
	<g>
		<polygon class="st0" points="130.56,187.56 132.22,74.29 141.47,66.85 147.87,75.24 147.87,141.79 147.87,169.11 		"/>
	</g>
	<g>
		<path class="st0" d="M139.22,67.33l5.1,14.22c0,0,11.9-14.73,14.44-16.33c5.35-3.37,9.96,5.3,8.33,22.26
			c-2.07,21.51-14.47,52.65-19.21,55.73c-4.74,3.08-0.87,26.83-0.87,26.83l16.29-19.67c0,0,16.36-38.7,17.07-45.81
			s2.34-57.67,2.34-60.99c0-2.85-5.49-16.36-14.66-11.21C156.68,38.74,139.22,67.33,139.22,67.33z"/>
	</g>
	<g>
		<path class="st0" d="M16.27,78.21c-0.65,0-1.31-0.21-1.85-0.65c-1.27-1.02-1.47-2.88-0.45-4.16l49.87-61.9
			c1.57-1.95,3.91-3.07,6.42-3.07l113.9,0.08c1.63,0,2.96,1.33,2.95,2.96c0,1.63-1.32,2.95-2.96,2.95c0,0,0,0,0,0l-113.9-0.08
			c-0.71,0-1.37,0.32-1.81,0.87l-49.87,61.9C17.99,77.84,17.14,78.21,16.27,78.21z"/>
	</g>
	<g>
		<g>
			<path class="st0" d="M69.66,74.14c-0.82,0-1.48-0.66-1.48-1.48V13.82c0-0.82,0.66-1.48,1.48-1.48s1.48,0.66,1.48,1.48v58.84
				C71.14,73.48,70.48,74.14,69.66,74.14z"/>
		</g>
		<g>
			<path class="st0" d="M64.76,74.22c-0.82,0-1.48-0.66-1.48-1.48V13.91c0-0.82,0.66-1.48,1.48-1.48c0.82,0,1.48,0.66,1.48,1.48
				v58.84C66.24,73.56,65.57,74.22,64.76,74.22z"/>
		</g>
		<g>
			<path class="st0" d="M58.63,75.86c-0.82,0-1.48-0.66-1.48-1.48V22.86c0-0.82,0.66-1.48,1.48-1.48c0.82,0,1.48,0.66,1.48,1.48
				v51.52C60.11,75.2,59.45,75.86,58.63,75.86z"/>
		</g>
		<g>
			<path class="st0" d="M52.09,75.86c-0.82,0-1.48-0.66-1.48-1.48V30.97c0-0.82,0.66-1.48,1.48-1.48s1.48,0.66,1.48,1.48v43.41
				C53.57,75.2,52.91,75.86,52.09,75.86z"/>
		</g>
		<g>
			<path class="st0" d="M46.38,75.86c-0.82,0-1.48-0.66-1.48-1.48V37.41c0-0.82,0.66-1.48,1.48-1.48s1.48,0.66,1.48,1.48v36.97
				C47.85,75.2,47.19,75.86,46.38,75.86z"/>
		</g>
		<g>
			<path class="st0" d="M41.84,76.23c-0.82,0-1.48-0.66-1.48-1.48V43.24c0-0.82,0.66-1.48,1.48-1.48s1.48,0.66,1.48,1.48v31.51
				C43.32,75.57,42.66,76.23,41.84,76.23z"/>
		</g>
		<g>
			<path class="st0" d="M37.93,76.23c-0.82,0-1.48-0.66-1.48-1.48V47.43c0-0.82,0.66-1.48,1.48-1.48c0.82,0,1.48,0.66,1.48,1.48
				v27.32C39.4,75.57,38.74,76.23,37.93,76.23z"/>
		</g>
		<g>
			<path class="st0" d="M34.49,76.23c-0.82,0-1.48-0.66-1.48-1.48V51.2c0-0.82,0.66-1.48,1.48-1.48c0.82,0,1.48,0.66,1.48,1.48
				v23.55C35.97,75.57,35.31,76.23,34.49,76.23z"/>
		</g>
		<g>
			<path class="st0" d="M30.74,76.23c-0.82,0-1.48-0.66-1.48-1.48V56.54c0-0.82,0.66-1.48,1.48-1.48c0.82,0,1.48,0.66,1.48,1.48
				v18.21C32.22,75.57,31.56,76.23,30.74,76.23z"/>
		</g>
		<g>
			<path class="st0" d="M27.31,76.23c-0.82,0-1.48-0.66-1.48-1.48V59.79c0-0.82,0.66-1.48,1.48-1.48c0.82,0,1.48,0.66,1.48,1.48
				v14.96C28.79,75.57,28.12,76.23,27.31,76.23z"/>
		</g>
		<g>
			<path class="st0" d="M24.04,76.68c-0.82,0-1.48-0.66-1.48-1.48V63.57c0-0.82,0.66-1.48,1.48-1.48s1.48,0.66,1.48,1.48V75.2
				C25.52,76.02,24.85,76.68,24.04,76.68z"/>
		</g>
	</g>
	<g>
		<g>
			<path class="st0" d="M178.79,19.22H69.66c-0.82,0-1.48-0.66-1.48-1.48s0.66-1.48,1.48-1.48h109.13c0.82,0,1.48,0.66,1.48,1.48
				S179.61,19.22,178.79,19.22z"/>
		</g>
		<g>
			<path class="st0" d="M174.54,25.95H69.66c-0.82,0-1.48-0.66-1.48-1.48c0-0.82,0.66-1.48,1.48-1.48h104.88
				c0.82,0,1.48,0.66,1.48,1.48C176.02,25.29,175.35,25.95,174.54,25.95z"/>
		</g>
		<g>
			<path class="st0" d="M170,31.45H69.66c-0.82,0-1.48-0.66-1.48-1.48s0.66-1.48,1.48-1.48H170c0.82,0,1.48,0.66,1.48,1.48
				S170.82,31.45,170,31.45z"/>
		</g>
		<g>
			<path class="st0" d="M167.98,37.42H69.97c-0.82,0-1.48-0.66-1.48-1.48c0-0.82,0.66-1.48,1.48-1.48h98.01
				c0.82,0,1.48,0.66,1.48,1.48C169.46,36.76,168.8,37.42,167.98,37.42z"/>
		</g>
		<g>
			<path class="st0" d="M181.18,42.55H69.66c-0.82,0-1.48-0.66-1.48-1.48c0-0.82,0.66-1.48,1.48-1.48h111.52
				c0.82,0,1.48,0.66,1.48,1.48C182.66,41.89,182,42.55,181.18,42.55z"/>
		</g>
		<g>
			<path class="st0" d="M181.18,48.16H69.66c-0.82,0-1.48-0.66-1.48-1.48c0-0.82,0.66-1.48,1.48-1.48h111.52
				c0.82,0,1.48,0.66,1.48,1.48C182.66,47.5,182,48.16,181.18,48.16z"/>
		</g>
		<g>
			<path class="st0" d="M181.18,53.29H69.66c-0.82,0-1.48-0.66-1.48-1.48s0.66-1.48,1.48-1.48h111.52c0.82,0,1.48,0.66,1.48,1.48
				S182,53.29,181.18,53.29z"/>
		</g>
		<g>
			<path class="st0" d="M181.18,58.48H69.66c-0.82,0-1.48-0.66-1.48-1.48s0.66-1.48,1.48-1.48h111.52c0.82,0,1.48,0.66,1.48,1.48
				S182,58.48,181.18,58.48z"/>
		</g>
		<g>
			<path class="st0" d="M145.94,62.8H69.66c-0.82,0-1.48-0.66-1.48-1.48c0-0.82,0.66-1.48,1.48-1.48h76.28
				c0.82,0,1.48,0.66,1.48,1.48C147.42,62.14,146.76,62.8,145.94,62.8z"/>
		</g>
		<g>
			<path class="st0" d="M147.87,66.92H69.66c-0.82,0-1.48-0.66-1.48-1.48s0.66-1.48,1.48-1.48h78.21c0.82,0,1.48,0.66,1.48,1.48
				S148.69,66.92,147.87,66.92z"/>
		</g>
		<g>
			<path class="st0" d="M147.87,70.75H69.66c-0.82,0-1.48-0.66-1.48-1.48c0-0.82,0.66-1.48,1.48-1.48h78.21
				c0.82,0,1.48,0.66,1.48,1.48C149.35,70.09,148.69,70.75,147.87,70.75z"/>
		</g>
	</g>
	<g>
		<polygon class="st0" points="187.1,15.75 187.06,11.11 184.3,15.03 		"/>
	</g>
</g>
</svg>
